HIERARCHY
ROOT Hips
{
     OFFSET 19.44180 95.12930 -11.39840
     CHANNELS 6 Xposition Yposition Zposition Zrotation Xrotation Yrotation
     JOINT Spine
     {
          OFFSET -0.00000 11.89050 0.00000
          CHANNELS 3 Zrotation Xrotation Yrotation
          JOINT Spine1
          {
               OFFSET -0.00000 25.65740 0.12766
               CHANNELS 3 Zrotation Xrotation Yrotation
               JOINT HEad
               {
                    OFFSET -0.00000 8.73416 0.01134
                    CHANNELS 3 Zrotation Xrotation Yrotation
                    End Site
                    {
                         OFFSET -0.29000 12.77420 2.51395
                    }
               }
               JOINT LeftShoulder1
               {
                    OFFSET 8.99000 -0.36225 -0.22000
                    CHANNELS 3 Zrotation Xrotation Yrotation
                    JOINT LeftArm
                    {
                         OFFSET 10.28270 -0.00338 0.32212
                         CHANNELS 3 Zrotation Xrotation Yrotation
                         JOINT LeftForeArm
                         {
                              OFFSET 32.76690 0.09914 -1.42434
                              CHANNELS 3 Zrotation Xrotation Yrotation
                              JOINT LeftHand
                              {
                                   OFFSET 27.56430 0.08536 1.02216
                                   CHANNELS 3 Zrotation Xrotation Yrotation
                                   End Site
                                   {
                                        OFFSET 16.74430 -0.60000 1.50291
                                   }
                              }
                         }
                    }
               }
               JOINT RightShoulder
               {
                    OFFSET -8.99000 -0.36225 -0.22000
                    CHANNELS 3 Zrotation Xrotation Yrotation
                    JOINT RightArm
                    {
                         OFFSET -10.28270 -0.00338 0.32212
                         CHANNELS 3 Zrotation Xrotation Yrotation
                         JOINT RightForeArm
                         {
                              OFFSET -32.89710 0.09914 -1.42434
                              CHANNELS 3 Zrotation Xrotation Yrotation
                              JOINT RightHand
                              {
                                   OFFSET -27.49210 0.08536 1.02216
                                   CHANNELS 3 Zrotation Xrotation Yrotation
                                   End Site
                                   {
                                        OFFSET -16.63120 -0.60000 1.50291
                                   }
                              }
                         }
                    }
               }
          }
     }
     JOINT LeftUpLeg
     {
          OFFSET 8.94580 -8.66707 0.10165
          CHANNELS 3 Zrotation Xrotation Yrotation
          JOINT LeftLeg
          {
               OFFSET -0.00000 -44.42270 1.37270
               CHANNELS 3 Zrotation Xrotation Yrotation
               JOINT LeftFoot
               {
                    OFFSET -0.25355 -42.09240 -1.46059
                    CHANNELS 3 Zrotation Xrotation Yrotation
                    JOINT LeftToes
                    {
                         OFFSET -0.04000 -4.41509 8.49910
                         CHANNELS 3 Zrotation Xrotation Yrotation
                         End Site
                         {
                              OFFSET 0.08000 -0.04745 9.77979
                         }
                    }
               }
          }
     }
     JOINT RightUpLeg
     {
          OFFSET -8.94580 -8.66707 0.10165
          CHANNELS 3 Zrotation Xrotation Yrotation
          JOINT RightLeg
          {
               OFFSET -0.00000 -44.42270 1.37270
               CHANNELS 3 Zrotation Xrotation Yrotation
               JOINT RightFoot
               {
                    OFFSET 0.25355 -42.09240 -1.46059
                    CHANNELS 3 Zrotation Xrotation Yrotation
                    JOINT RightToes
                    {
                         OFFSET 0.04000 -4.41509 8.49910
                         CHANNELS 3 Zrotation Xrotation Yrotation
                         End Site
                         {
                              OFFSET -0.08000 -0.13745 9.77979
                         }
                    }
               }
          }
     }
}
MOTION
Frames: 15
Frame Time: 0.01667
19.44180 95.12930 -11.39840 -7.43190 -11.01230 -29.46390 -3.38355 10.56570 0.43431 -2.73123 20.79360 0.71698 4.44361 -12.49090 10.13850 -0.00000 0.00000 -0.00000 -100.87700 -51.14030 -90.52640 -25.53200 37.25930 -74.97700 15.30450 8.11278 -9.73235 13.10830 1.24723 5.15791 95.68530 -5.09059 79.54500 8.51657 34.80850 106.96500 17.54940 11.49470 5.73658 17.85780 -5.55433 -10.90550 -20.34740 8.90317 59.05590 -1.05394 13.67560 0.09767 4.27875 -24.07780 -59.95490 -26.15880 12.81510 14.78390 38.63050 5.81583 -3.96747 -4.15740 -21.45140 -0.78099 10.42910 3.61112 -57.70010 
19.38920 94.93760 -11.43040 -7.16983 -10.92380 -29.60140 -3.71530 10.58940 0.54756 -2.85208 20.79390 0.82922 4.27072 -12.54200 10.27290 -0.00000 0.00000 -0.00000 -101.39500 -51.30180 -91.07410 -25.31980 37.91120 -75.20450 15.43650 8.11086 -9.62093 12.74410 1.24757 5.30495 95.84730 -4.34665 79.67240 7.62569 34.37980 107.55900 17.61450 11.46740 5.52915 17.93300 -6.09074 -11.11280 -20.91640 9.39438 59.89590 -1.31596 13.49460 0.14526 4.11495 -24.51430 -60.47150 -26.08910 13.08920 14.58300 38.43470 4.93980 -3.93472 -4.28175 -21.64230 -0.80532 10.07670 2.49624 -58.40310 
19.33780 94.72130 -11.49550 -7.00824 -10.87580 -29.73070 -3.93661 10.64590 0.61250 -2.95470 20.87440 0.90586 4.05495 -12.60000 10.44580 -0.00000 0.00000 -0.00000 -100.13900 -51.04610 -90.41550 -24.52970 37.03010 -75.70890 15.10920 8.16365 -9.52191 12.31420 1.25248 5.51586 96.12310 -3.68838 79.82640 6.97137 34.03300 107.79200 17.69220 11.44540 5.34948 18.17170 -6.59591 -11.62260 -21.70880 9.78415 61.11990 -1.50004 13.27920 0.17758 3.91210 -25.04240 -61.02080 -25.96260 13.15340 14.45170 38.09990 4.70179 -3.81285 -4.32487 -21.55680 -0.80674 9.40527 0.99640 -58.41700 
19.31350 94.48500 -11.57390 -7.00024 -10.91260 -29.86110 -4.04000 10.75200 0.64884 -3.01772 21.06830 0.97947 3.76054 -12.63950 10.59220 -0.00000 0.00000 -0.00000 -97.68990 -50.42610 -88.91220 -23.61750 35.02360 -76.18560 14.50520 8.23804 -9.51582 11.90970 1.25262 5.69407 96.43310 -3.15517 80.00580 6.52632 33.81290 107.77700 17.79710 11.42900 5.19238 18.56880 -7.03852 -12.47400 -22.76560 10.09860 62.76050 -1.56641 12.99960 0.18754 3.70722 -25.56880 -61.45120 -25.82960 12.98200 14.38940 37.80560 5.20633 -3.69950 -4.29444 -21.30690 -0.79129 8.53542 -0.69412 -57.77260 
19.33060 94.22270 -11.65140 -7.14496 -11.06900 -29.99710 -4.07780 10.90670 0.68433 -3.02235 21.36580 1.06843 3.32444 -12.55370 10.64500 -0.00000 0.00000 -0.00000 -95.07800 -49.62230 -87.19860 -23.03030 32.71680 -76.39580 13.87700 8.30314 -9.61370 11.64380 1.24772 5.78181 96.63510 -2.78086 80.18850 6.23776 33.71580 107.66800 17.94220 11.41550 5.03463 19.08710 -7.46265 -13.65490 -24.14900 10.42780 64.86720 -1.56959 12.64110 0.18539 3.56542 -25.93730 -61.63060 -25.78690 12.68710 14.41690 37.75120 6.18680 -3.67680 -4.21791 -20.94260 -0.76518 7.61381 -2.43093 -56.78450 
19.38900 93.94150 -11.71890 -7.38995 -11.35020 -30.14280 -4.11488 11.09410 0.72746 -2.96848 21.72760 1.15449 2.72643 -12.22250 10.58390 -0.00000 0.00000 -0.00000 -93.11490 -48.87640 -85.74670 -22.93120 30.85960 -76.34300 13.38400 8.34943 -9.73985 11.54440 1.24079 5.78033 96.65400 -2.55925 80.35140 6.07417 33.72000 107.56100 18.09770 11.40220 4.87465 19.66990 -7.92202 -14.99110 -25.87770 10.83570 67.39330 -1.61251 12.22210 0.18962 3.56914 -25.94680 -61.45410 -25.91100 12.44080 14.50880 38.00800 7.23481 -3.75649 -4.13255 -20.50260 -0.73519 6.78720 -4.03833 -55.85390 
19.47530 93.67110 -11.76680 -7.65854 -11.72540 -30.32390 -4.19545 11.29190 0.76657 -2.89067 22.10490 1.20723 2.00472 -11.58330 10.45160 -0.00000 0.00000 -0.00000 -92.23680 -48.43680 -84.81000 -23.27000 29.96050 -76.16320 13.08790 8.38055 -9.78966 11.54510 1.22725 5.68722 96.55050 -2.40960 80.47670 6.03790 33.82860 107.47000 18.22090 11.38610 4.71601 20.27410 -8.42306 -16.11910 -27.88140 11.33040 70.19410 -1.73178 11.82240 0.20662 3.75023 -25.50570 -60.89580 -26.20690 12.32650 14.59530 38.46820 8.12301 -3.88979 -4.07730 -20.08420 -0.71025 6.17110 -5.28702 -55.19220 
19.56900 93.44710 -11.78370 -7.88467 -12.14370 -30.58120 -4.36137 11.48210 0.79144 -2.83905 22.45610 1.21134 1.24571 -10.66720 10.34730 -0.00000 0.00000 -0.00000 -92.62080 -48.50430 -84.52870 -23.93890 30.30580 -75.97290 13.00870 8.39936 -9.70632 11.55890 1.19714 5.47460 96.45600 -2.23328 80.55200 6.13631 34.06550 107.36300 18.28950 11.36660 4.56551 20.87710 -8.92863 -16.57380 -29.96480 11.94230 73.10510 -1.82944 11.60250 0.22099 4.01131 -24.83780 -60.11950 -26.62240 12.31450 14.63820 38.94330 8.82333 -4.02507 -4.06794 -19.72510 -0.69333 5.75612 -6.14741 -54.74440 
19.65740 93.25660 -11.71910 -8.04224 -12.55550 -30.91610 -4.64387 11.65510 0.77386 -2.84744 22.75520 1.16370 0.56118 -9.58766 10.39020 -0.00000 0.00000 -0.00000 -94.23600 -49.15480 -84.95400 -24.85780 31.89620 -75.81590 13.10510 8.40934 -9.50580 11.52430 1.14371 5.12295 96.45600 -1.97620 80.55770 6.33031 34.41520 107.22400 18.28960 11.34640 4.44322 21.42790 -9.49692 -15.96940 -31.86480 13.00520 75.93960 -1.83953 11.62150 0.22287 4.18638 -24.38280 -59.41490 -27.09270 12.29510 14.65180 39.32450 9.50987 -4.18469 -4.08573 -19.47430 -0.68414 5.44727 -6.79215 -54.38490 
19.73710 93.10120 -11.55310 -8.12201 -12.92840 -31.33400 -5.05420 11.80260 0.71390 -2.92194 22.98260 1.05508 0.00349 -8.47532 10.67080 -0.00000 0.00000 -0.00000 -96.90450 -50.33320 -86.05660 -26.01820 34.45990 -75.66860 13.27950 8.41650 -9.24923 11.43370 1.07285 4.67191 96.50200 -1.64190 80.46960 6.53055 34.77860 107.08000 18.22360 11.32790 4.36190 21.91360 -10.07880 -14.32870 -33.32620 14.49580 78.50620 -1.61409 11.83730 0.18682 4.18047 -24.42850 -59.01900 -27.60480 12.22600 14.70730 39.59140 10.17130 -4.35575 -4.11509 -19.26590 -0.67797 5.17951 -7.35943 -54.07430 
19.82050 92.98540 -11.27600 -8.15081 -13.22510 -31.84930 -5.52115 11.91400 0.61237 -3.04556 23.12600 0.86840 -0.49815 -7.43044 11.24980 -0.00000 0.00000 -0.00000 -100.44300 -51.93570 -87.80990 -27.48750 37.63350 -75.44620 13.44900 8.42364 -9.00493 11.34190 1.00525 4.23871 96.44350 -1.28236 80.29360 6.67033 35.02630 106.96000 18.14090 11.31290 4.30840 22.36160 -10.92340 -12.04190 -34.37380 16.71760 80.67120 -1.43955 11.99630 0.15828 4.00586 -24.94400 -59.05980 -28.15130 12.12260 14.86700 39.77050 10.68710 -4.49250 -4.14942 -19.01900 -0.67048 4.94698 -7.86173 -53.82120 
19.92850 92.88340 -10.86080 -8.18915 -13.41040 -32.48280 -5.92545 11.98680 0.46014 -3.18924 23.19590 0.60320 -1.08680 -6.55128 12.15410 -0.00000 0.00000 -0.00000 -104.89400 -53.88680 -90.35610 -29.37860 41.21380 -75.01900 13.59350 8.42938 -8.80469 11.31360 0.95839 3.92281 96.15700 -0.94620 80.07370 6.77437 35.10410 106.85400 18.11310 11.30260 4.25841 22.94060 -11.72130 -9.81792 -34.98160 18.70850 82.15830 -1.21264 12.10920 0.12003 3.72548 -25.71920 -59.53510 -28.69460 11.97790 15.13200 39.89290 11.07690 -4.57746 -4.18797 -18.75650 -0.66256 4.77840 -8.22162 -53.60000 
20.07800 92.77250 -10.29160 -8.29312 -13.47700 -33.26980 -6.15339 12.02810 0.26135 -3.32381 23.22640 0.28277 -1.90704 -5.92843 13.32770 -0.00000 0.00000 -0.00000 -110.74200 -56.14500 -94.16640 -31.85590 45.27860 -74.21500 13.74430 8.43293 -8.62163 11.35190 0.92664 3.68856 95.61320 -0.59558 79.85190 6.91908 35.04430 106.73500 18.16240 11.29650 4.19856 23.72900 -12.21770 -8.22377 -35.12670 19.73660 82.71890 -0.97589 12.25700 0.07973 3.41753 -26.51100 -60.27430 -29.19060 11.78140 15.46050 39.94350 11.43360 -4.60291 -4.23687 -18.52560 -0.65692 4.70409 -8.34892 -53.33930 
20.27700 92.63750 -9.56097 -8.48155 -13.43580 -34.24460 -6.13117 12.04050 0.02630 -3.42315 23.24180 -0.07109 -3.08819 -5.55491 14.65240 -0.00000 0.00000 -0.00000 -118.79400 -58.59960 -99.99850 -35.19540 49.97630 -72.76630 13.92310 8.43768 -8.40539 11.40210 0.88944 3.41363 94.82440 -0.11671 79.63580 7.17442 34.89570 106.58800 18.24410 11.28800 4.11025 24.72050 -12.34280 -7.56241 -34.84180 19.58180 82.37460 -0.85695 12.46510 0.05944 3.18171 -27.06790 -60.99540 -29.61600 11.51290 15.79350 39.87440 11.87340 -4.55790 -4.30243 -18.36830 -0.65606 4.71424 -8.24494 -52.94660 
20.53030 92.48120 -8.65702 -8.74924 -13.27540 -35.44560 -5.81726 12.01260 -0.23801 -3.46309 23.23310 -0.44993 -4.71027 -5.32018 16.03980 -0.00000 0.00000 -0.00000 -129.62199 -60.91760 -108.52300 -39.81490 55.13790 -70.24030 14.06840 8.45269 -8.13847 11.39580 0.83249 3.02068 93.82550 0.59035 79.40920 7.63753 34.70550 106.37700 18.29730 11.26010 3.91734 25.90700 -12.02430 -7.95481 -34.16710 18.11640 81.44250 -0.84137 12.67800 0.05699 3.17323 -27.04090 -61.34410 -29.97150 11.17700 16.08820 39.62930 12.38550 -4.38238 -4.37660 -18.22430 -0.65644 4.73139 -8.07664 -52.33820 
